<svg viewBox="0 0 220 160" xmlns="http://www.w3.org/2000/svg" role="img" aria-label="Nothing here yet">
  <ellipse cx="110" cy="140" rx="78" ry="10" fill="#eef2ff"/>
  <rect x="48" y="40" width="124" height="92" rx="12" fill="#fff" stroke="#c7d2fe" stroke-width="2.5"/>
  <rect x="48" y="40" width="124" height="22" rx="12" fill="#eef2ff"/>
  <circle cx="64" cy="51" r="3.5" fill="#a5b4fc"/><circle cx="76" cy="51" r="3.5" fill="#c7d2fe"/>
  <rect x="64" y="78" width="60" height="7" rx="3.5" fill="#e0e7ff"/><rect x="64" y="94" width="92" height="7" rx="3.5" fill="#eef2ff"/><rect x="64" y="110" width="44" height="7" rx="3.5" fill="#eef2ff"/>
  <circle cx="158" cy="38" r="22" fill="#4f46e5"/><path d="M158 28 v20 M148 38 h20" stroke="#fff" stroke-width="4" stroke-linecap="round"/>
  <path d="M30 70 l4 8 l8 4 l-8 4 l-4 8 l-4 -8 l-8 -4 l8 -4z" fill="#c7d2fe"/>
  <path d="M192 96 l3 6 l6 3 l-6 3 l-3 6 l-3 -6 l-6 -3 l6 -3z" fill="#ddd6fe"/>
</svg>
